<svg id="my-svg" width="100%" xmlns="http://www.w3.org/2000/svg" xmlns:xlink="http://www.w3.org/1999/xlink" class="flowchart" style="max-width: 2122px; background-color: white;" viewBox="0 0 2122 1591" role="graphics-document document" aria-roledescription="flowchart-v2"><style>#my-svg{font-family:"trebuchet ms",verdana,arial,sans-serif;font-size:16px;fill:#333;}@keyframes edge-animation-frame{from{stroke-dashoffset:0;}}@keyframes dash{to{stroke-dashoffset:0;}}#my-svg .edge-animation-slow{stroke-dasharray:9,5!important;stroke-dashoffset:900;animation:dash 50s linear infinite;stroke-linecap:round;}#my-svg .edge-animation-fast{stroke-dasharray:9,5!important;stroke-dashoffset:900;animation:dash 20s linear infinite;stroke-linecap:round;}#my-svg .error-icon{fill:#552222;}#my-svg .error-text{fill:#552222;stroke:#552222;}#my-svg .edge-thickness-normal{stroke-width:1px;}#my-svg .edge-thickness-thick{stroke-width:3.5px;}#my-svg .edge-pattern-solid{stroke-dasharray:0;}#my-svg .edge-thickness-invisible{stroke-width:0;fill:none;}#my-svg .edge-pattern-dashed{stroke-dasharray:3;}#my-svg .edge-pattern-dotted{stroke-dasharray:2;}#my-svg .marker{fill:#333333;stroke:#333333;}#my-svg .marker.cross{stroke:#333333;}#my-svg svg{font-family:"trebuchet ms",verdana,arial,sans-serif;font-size:16px;}#my-svg p{margin:0;}#my-svg .label{font-family:"trebuchet ms",verdana,arial,sans-serif;color:#333;}#my-svg .cluster-label text{fill:#333;}#my-svg .cluster-label span{color:#333;}#my-svg .cluster-label span p{background-color:transparent;}#my-svg .label text,#my-svg span{fill:#333;color:#333;}#my-svg .node rect,#my-svg .node circle,#my-svg .node ellipse,#my-svg .node polygon,#my-svg .node path{fill:#ECECFF;stroke:#9370DB;stroke-width:1px;}#my-svg .rough-node .label text,#my-svg .node .label text,#my-svg .image-shape .label,#my-svg .icon-shape .label{text-anchor:middle;}#my-svg .node .katex path{fill:#000;stroke:#000;stroke-width:1px;}#my-svg .rough-node .label,#my-svg .node .label,#my-svg .image-shape .label,#my-svg .icon-shape .label{text-align:center;}#my-svg .node.clickable{cursor:pointer;}#my-svg .root .anchor path{fill:#333333!important;stroke-width:0;stroke:#333333;}#my-svg .arrowheadPath{fill:#333333;}#my-svg .edgePath .path{stroke:#333333;stroke-width:2.0px;}#my-svg .flowchart-link{stroke:#333333;fill:none;}#my-svg .edgeLabel{background-color:rgba(232,232,232, 0.8);text-align:center;}#my-svg .edgeLabel p{background-color:rgba(232,232,232, 0.8);}#my-svg .edgeLabel rect{opacity:0.5;background-color:rgba(232,232,232, 0.8);fill:rgba(232,232,232, 0.8);}#my-svg .labelBkg{background-color:rgba(232, 232, 232, 0.5);}#my-svg .cluster rect{fill:#ffffde;stroke:#aaaa33;stroke-width:1px;}#my-svg .cluster text{fill:#333;}#my-svg .cluster span{color:#333;}#my-svg div.mermaidTooltip{position:absolute;text-align:center;max-width:200px;padding:2px;font-family:"trebuchet ms",verdana,arial,sans-serif;font-size:12px;background:hsl(80, 100%, 96.2745098039%);border:1px solid #aaaa33;border-radius:2px;pointer-events:none;z-index:100;}#my-svg .flowchartTitleText{text-anchor:middle;font-size:18px;fill:#333;}#my-svg rect.text{fill:none;stroke-width:0;}#my-svg .icon-shape,#my-svg .image-shape{background-color:rgba(232,232,232, 0.8);text-align:center;}#my-svg .icon-shape p,#my-svg .image-shape p{background-color:rgba(232,232,232, 0.8);padding:2px;}#my-svg .icon-shape rect,#my-svg .image-shape rect{opacity:0.5;background-color:rgba(232,232,232, 0.8);fill:rgba(232,232,232, 0.8);}#my-svg .label-icon{display:inline-block;height:1em;overflow:visible;vertical-align:-0.125em;}#my-svg .node .label-icon path{fill:currentColor;stroke:revert;stroke-width:revert;}#my-svg :root{--mermaid-font-family:"trebuchet ms",verdana,arial,sans-serif;}</style><g><marker id="my-svg_flowchart-v2-pointEnd" class="marker flowchart-v2" viewBox="0 0 10 10" refX="5" refY="5" markerUnits="userSpaceOnUse" markerWidth="8" markerHeight="8" orient="auto"><path d="M 0 0 L 10 5 L 0 10 z" class="arrowMarkerPath" style="stroke-width: 1; stroke-dasharray: 1, 0;"/></marker><marker id="my-svg_flowchart-v2-pointStart" class="marker flowchart-v2" viewBox="0 0 10 10" refX="4.5" refY="5" markerUnits="userSpaceOnUse" markerWidth="8" markerHeight="8" orient="auto"><path d="M 0 5 L 10 10 L 10 0 z" class="arrowMarkerPath" style="stroke-width: 1; stroke-dasharray: 1, 0;"/></marker><marker id="my-svg_flowchart-v2-circleEnd" class="marker flowchart-v2" viewBox="0 0 10 10" refX="11" refY="5" markerUnits="userSpaceOnUse" markerWidth="11" markerHeight="11" orient="auto"><circle cx="5" cy="5" r="5" class="arrowMarkerPath" style="stroke-width: 1; stroke-dasharray: 1, 0;"/></marker><marker id="my-svg_flowchart-v2-circleStart" class="marker flowchart-v2" viewBox="0 0 10 10" refX="-1" refY="5" markerUnits="userSpaceOnUse" markerWidth="11" markerHeight="11" orient="auto"><circle cx="5" cy="5" r="5" class="arrowMarkerPath" style="stroke-width: 1; stroke-dasharray: 1, 0;"/></marker><marker id="my-svg_flowchart-v2-crossEnd" class="marker cross flowchart-v2" viewBox="0 0 11 11" refX="12" refY="5.2" markerUnits="userSpaceOnUse" markerWidth="11" markerHeight="11" orient="auto"><path d="M 1,1 l 9,9 M 10,1 l -9,9" class="arrowMarkerPath" style="stroke-width: 2; stroke-dasharray: 1, 0;"/></marker><marker id="my-svg_flowchart-v2-crossStart" class="marker cross flowchart-v2" viewBox="0 0 11 11" refX="-1" refY="5.2" markerUnits="userSpaceOnUse" markerWidth="11" markerHeight="11" orient="auto"><path d="M 1,1 l 9,9 M 10,1 l -9,9" class="arrowMarkerPath" style="stroke-width: 2; stroke-dasharray: 1, 0;"/></marker><g class="root"><g class="clusters"><g class="cluster" id="subGraph4" data-look="classic"><rect style="" x="1609.109375" y="8" width="274.203125" height="1176"/><g class="cluster-label" transform="translate(1698.796875, 8)"><foreignObject width="94.828125" height="24"><div xmlns="http://www.w3.org/1999/xhtml" style="display: table-cell; white-space: nowrap; line-height: 1.5; max-width: 200px; text-align: center;"><span class="nodeLabel"><p>Google Cloud</p></span></div></foreignObject></g></g><g class="cluster" id="subGraph3" data-look="classic"><rect style="" x="622.8125" y="15" width="871.765625" height="897"/><g class="cluster-label" transform="translate(976.046875, 15)"><foreignObject width="165.296875" height="24"><div xmlns="http://www.w3.org/1999/xhtml" style="display: table-cell; white-space: nowrap; line-height: 1.5; max-width: 200px; text-align: center;"><span class="nodeLabel"><p>Cloud Run — Live Voice</p></span></div></foreignObject></g></g><g class="cluster" id="subGraph1" data-look="classic"><rect style="" x="933.734375" y="932" width="560.84375" height="234"/><g class="cluster-label" transform="translate(1129.6875, 932)"><foreignObject width="168.9375" height="24"><div xmlns="http://www.w3.org/1999/xhtml" style="display: table-cell; white-space: nowrap; line-height: 1.5; max-width: 200px; text-align: center;"><span class="nodeLabel"><p>Cloud Run — Main HTTP</p></span></div></foreignObject></g></g><g class="cluster" id="Channels" data-look="classic"><rect style="" x="8" y="1207" width="2106" height="376"/><g class="cluster-label" transform="translate(1028.9375, 1207)"><foreignObject width="64.125" height="24"><div xmlns="http://www.w3.org/1999/xhtml" style="display: table-cell; white-space: nowrap; line-height: 1.5; max-width: 200px; text-align: center;"><span class="nodeLabel"><p>Channels</p></span></div></foreignObject></g></g><g class="cluster" id="subGraph2" data-look="classic"><rect style="" x="958.734375" y="35" width="510.84375" height="857"/><g class="cluster-label" transform="translate(1148.15625, 35)"><foreignObject width="132" height="24"><div xmlns="http://www.w3.org/1999/xhtml" style="display: table-cell; white-space: nowrap; line-height: 1.5; max-width: 200px; text-align: center;"><span class="nodeLabel"><p>Google ADK 1.26.0</p></span></div></foreignObject></g></g></g><g class="edgePaths"><path d="M135.508,1469L150.233,1439.667C164.958,1410.333,194.409,1351.667,212.634,1322.333C230.859,1293,237.859,1293,241.359,1293L244.859,1293" id="L_PHONE_SIP_B_0" class="edge-thickness-normal edge-pattern-solid edge-thickness-normal edge-pattern-solid flowchart-link" style=";" data-edge="true" data-et="edge" data-id="L_PHONE_SIP_B_0" data-points="W3sieCI6MTM1LjUwNzYzMDgxMzk1MzQ4LCJ5IjoxNDY5fSx7IngiOjIyMy44NTkzNzUsInkiOjEyOTN9LHsieCI6MjQ4Ljg1OTM3NSwieSI6MTI5M31d" marker-end="url(#my-svg_flowchart-v2-pointEnd)"/><path d="M466.297,1293L479.34,1293C492.383,1293,518.469,1293,544.555,1293C570.641,1293,596.727,1293,632.174,1180.321C667.621,1067.641,712.43,842.282,734.834,729.603L757.239,616.923" id="L_SIP_B_GW_0" class="edge-thickness-normal edge-pattern-solid edge-thickness-normal edge-pattern-solid flowchart-link" style=";" data-edge="true" data-et="edge" data-id="L_SIP_B_GW_0" data-points="W3sieCI6NDY2LjI5Njg3NSwieSI6MTI5M30seyJ4Ijo1NDQuNTU0Njg3NSwieSI6MTI5M30seyJ4Ijo2MjIuODEyNSwieSI6MTI5M30seyJ4Ijo3NTguMDE4OTQ5OTMwNDU4OSwieSI6NjEzfV0=" marker-end="url(#my-svg_flowchart-v2-pointEnd)"/><path d="M1933.313,1410.895L1929.146,1411.746C1924.979,1412.597,1916.646,1414.298,1908.313,1415.149C1899.979,1416,1891.646,1416,1864.629,1416C1837.612,1416,1791.911,1416,1746.211,1416C1700.51,1416,1654.81,1416,1622.415,1416C1590.021,1416,1570.932,1416,1551.844,1362.333C1532.755,1308.667,1513.667,1201.333,1499.956,1147.667C1486.245,1094,1477.911,1094,1454.996,1094C1432.081,1094,1394.583,1094,1357.086,1094C1319.589,1094,1282.091,1094,1259.832,1093.361C1237.572,1092.723,1230.551,1091.445,1227.04,1090.807L1223.529,1090.168" id="L_WA_CTRL_0" class="edge-thickness-normal edge-pattern-solid edge-thickness-normal edge-pattern-solid flowchart-link" style=";" data-edge="true" data-et="edge" data-id="L_WA_CTRL_0" data-points="W3sieCI6MTkzMy4zMTI1LCJ5IjoxNDEwLjg5NTE2ODY0MTc1MDJ9LHsieCI6MTkwOC4zMTI1LCJ5IjoxNDE2fSx7IngiOjE4ODMuMzEyNSwieSI6MTQxNn0seyJ4IjoxNzQ2LjIxMDkzNzUsInkiOjE0MTZ9LHsieCI6MTYwOS4xMDkzNzUsInkiOjE0MTZ9LHsieCI6MTU1MS44NDM3NSwieSI6MTQxNn0seyJ4IjoxNDk0LjU3ODEyNSwieSI6MTA5NH0seyJ4IjoxNDY5LjU3ODEyNSwieSI6MTA5NH0seyJ4IjoxMzU3LjA4NTkzNzUsInkiOjEwOTR9LHsieCI6MTI0NC41OTM3NSwieSI6MTA5NH0seyJ4IjoxMjE5LjU5Mzc1LCJ5IjoxMDg5LjQ1MjMwOTM3NDE0Nn1d" marker-end="url(#my-svg_flowchart-v2-pointEnd)"/><path d="M198.859,1507.232L203.026,1507.193C207.193,1507.154,215.526,1507.077,241.979,1507.039C268.432,1507,313.005,1507,366.454,1507C419.904,1507,482.229,1507,526.435,1507C570.641,1507,596.727,1507,633.596,1507C670.466,1507,718.12,1507,765.773,1507C813.427,1507,861.081,1507,889.074,1507C917.068,1507,925.401,1507,933.734,1507C942.068,1507,950.401,1507,974.764,1444.967C999.128,1382.934,1039.521,1258.869,1059.718,1196.836L1079.914,1134.803" id="L_PHONE_CTRL_0" class="edge-thickness-normal edge-pattern-solid edge-thickness-normal edge-pattern-solid flowchart-link" style=";" data-edge="true" data-et="edge" data-id="L_PHONE_CTRL_0" data-points="W3sieCI6MTk4Ljg1OTM3NSwieSI6MTUwNy4yMzE2MzIyODM3NDk2fSx7IngiOjIyMy44NTkzNzUsInkiOjE1MDd9LHsieCI6MzU3LjU3ODEyNSwieSI6MTUwN30seyJ4Ijo1NDQuNTU0Njg3NSwieSI6MTUwN30seyJ4Ijo2MjIuODEyNSwieSI6MTUwN30seyJ4Ijo3NjUuNzczNDM3NSwieSI6MTUwN30seyJ4Ijo5MDguNzM0Mzc1LCJ5IjoxNTA3fSx7IngiOjkzMy43MzQzNzUsInkiOjE1MDd9LHsieCI6OTU4LjczNDM3NSwieSI6MTUwN30seyJ4IjoxMDgxLjE1MjUxMjgxMzIxMTgsInkiOjExMzF9XQ==" marker-end="url(#my-svg_flowchart-v2-pointEnd)"/><path d="M448.406,1433L464.431,1433C480.456,1433,512.505,1433,541.573,1433C570.641,1433,596.727,1433,632.405,1296.991C668.084,1160.982,713.355,888.964,735.991,752.955L758.626,616.946" id="L_UI_GW_0" class="edge-thickness-normal edge-pattern-solid edge-thickness-normal edge-pattern-solid flowchart-link" style=";" data-edge="true" data-et="edge" data-id="L_UI_GW_0" data-points="W3sieCI6NDQ4LjQwNjI1LCJ5IjoxNDMzfSx7IngiOjU0NC41NTQ2ODc1LCJ5IjoxNDMzfSx7IngiOjYyMi44MTI1LCJ5IjoxNDMzfSx7IngiOjc1OS4yODI3Nzc5Mzk0NjQ1LCJ5Ijo2MTN9XQ==" marker-end="url(#my-svg_flowchart-v2-pointEnd)"/><path d="M1219.594,1026.746L1223.76,1025.288C1227.927,1023.83,1236.26,1020.915,1244.678,1019.458C1253.096,1018,1261.599,1018,1265.85,1018L1270.102,1018" id="L_CTRL_TR_0" class="edge-thickness-normal edge-pattern-solid edge-thickness-normal edge-pattern-solid flowchart-link" style=";" data-edge="true" data-et="edge" data-id="L_CTRL_TR_0" data-points="W3sieCI6MTIxOS41OTM3NSwieSI6MTAyNi43NDU1NTg4OTU4NzMzfSx7IngiOjEyNDQuNTkzNzUsInkiOjEwMTh9LHsieCI6MTI3NC4xMDE1NjI1LCJ5IjoxMDE4fV0=" marker-end="url(#my-svg_flowchart-v2-pointEnd)"/><path d="M1083.021,1131L1062.307,1201C1041.592,1271,1000.163,1411,975.282,1481C950.401,1551,942.068,1551,933.734,1551C925.401,1551,917.068,1551,889.074,1551C861.081,1551,813.427,1551,765.773,1551C718.12,1551,670.466,1551,633.596,1551C596.727,1551,570.641,1551,526.435,1551C482.229,1551,419.904,1551,366.454,1551C313.005,1551,268.432,1551,242.598,1549.587C216.765,1548.173,209.67,1545.347,206.123,1543.934L202.575,1542.52" id="L_CTRL_PHONE_0" class="edge-thickness-normal edge-pattern-solid edge-thickness-normal edge-pattern-solid flowchart-link" style=";" data-edge="true" data-et="edge" data-id="L_CTRL_PHONE_0" data-points="W3sieCI6MTA4My4wMjEwNTk3ODI2MDg3LCJ5IjoxMTMxfSx7IngiOjk1OC43MzQzNzUsInkiOjE1NTF9LHsieCI6OTMzLjczNDM3NSwieSI6MTU1MX0seyJ4Ijo5MDguNzM0Mzc1LCJ5IjoxNTUxfSx7IngiOjc2NS43NzM0Mzc1LCJ5IjoxNTUxfSx7IngiOjYyMi44MTI1LCJ5IjoxNTUxfSx7IngiOjU0NC41NTQ2ODc1LCJ5IjoxNTUxfSx7IngiOjM1Ny41NzgxMjUsInkiOjE1NTF9LHsieCI6MjIzLjg1OTM3NSwieSI6MTU1MX0seyJ4IjoxOTguODU5Mzc1LCJ5IjoxNTQxLjAzOTgxMTc5ODc2OTV9XQ==" marker-end="url(#my-svg_flowchart-v2-pointEnd)"/><path d="M883.734,574L887.901,574C892.068,574,900.401,574,908.734,574C917.068,574,925.401,574,933.734,574C942.068,574,950.401,574,959.908,574C969.414,574,980.094,574,985.434,574L990.773,574" id="L_GW_ROOT_0" class="edge-thickness-normal edge-pattern-solid edge-thickness-normal edge-pattern-solid flowchart-link" style=";" data-edge="true" data-et="edge" data-id="L_GW_ROOT_0" data-points="W3sieCI6ODgzLjczNDM3NSwieSI6NTc0fSx7IngiOjkwOC43MzQzNzUsInkiOjU3NH0seyJ4Ijo5MzMuNzM0Mzc1LCJ5Ijo1NzR9LHsieCI6OTU4LjczNDM3NSwieSI6NTc0fSx7IngiOjk5NC43NzM0Mzc1LCJ5Ijo1NzR9XQ==" marker-end="url(#my-svg_flowchart-v2-pointEnd)"/><path d="M1119.357,523L1140.23,462.833C1161.102,402.667,1202.848,282.333,1229.352,222.167C1255.857,162,1267.12,162,1272.751,162L1278.383,162" id="L_ROOT_VA_0" class="edge-thickness-normal edge-pattern-solid edge-thickness-normal edge-pattern-solid flowchart-link" style=";" data-edge="true" data-et="edge" data-id="L_ROOT_VA_0" data-points="W3sieCI6MTExOS4zNTY4MTUwNzg4ODM1LCJ5Ijo1MjN9LHsieCI6MTI0NC41OTM3NSwieSI6MTYyfSx7IngiOjEyODIuMzgyODEyNSwieSI6MTYyfV0=" marker-end="url(#my-svg_flowchart-v2-pointEnd)"/><path d="M1125.331,523L1145.208,480.167C1165.085,437.333,1204.839,351.667,1228.217,308.833C1251.594,266,1258.594,266,1262.094,266L1265.594,266" id="L_ROOT_VLA_0" class="edge-thickness-normal edge-pattern-solid edge-thickness-normal edge-pattern-solid flowchart-link" style=";" data-edge="true" data-et="edge" data-id="L_ROOT_VLA_0" data-points="W3sieCI6MTEyNS4zMzA5OTEyNzQzNTA3LCJ5Ijo1MjN9LHsieCI6MTI0NC41OTM3NSwieSI6MjY2fSx7IngiOjEyNjkuNTkzNzUsInkiOjI2Nn1d" marker-end="url(#my-svg_flowchart-v2-pointEnd)"/><path d="M1137.396,523L1155.263,497.5C1173.129,472,1208.861,421,1231.131,395.5C1253.401,370,1262.208,370,1266.612,370L1271.016,370" id="L_ROOT_BA_0" class="edge-thickness-normal edge-pattern-solid edge-thickness-normal edge-pattern-solid flowchart-link" style=";" data-edge="true" data-et="edge" data-id="L_ROOT_BA_0" data-points="W3sieCI6MTEzNy4zOTY0ODQzNzUsInkiOjUyM30seyJ4IjoxMjQ0LjU5Mzc1LCJ5IjozNzB9LHsieCI6MTI3NS4wMTU2MjUsInkiOjM3MH1d" marker-end="url(#my-svg_flowchart-v2-pointEnd)"/><path d="M1174.558,523L1186.231,514.833C1197.903,506.667,1221.249,490.333,1237.581,482.167C1253.914,474,1263.234,474,1267.895,474L1272.555,474" id="L_ROOT_CA_0" class="edge-thickness-normal edge-pattern-solid edge-thickness-normal edge-pattern-solid flowchart-link" style=";" data-edge="true" data-et="edge" data-id="L_ROOT_CA_0" data-points="W3sieCI6MTE3NC41NTgyMDMxMjUsInkiOjUyM30seyJ4IjoxMjQ0LjU5Mzc1LCJ5Ijo0NzR9LHsieCI6MTI3Ni41NTQ2ODc1LCJ5Ijo0NzR9XQ==" marker-end="url(#my-svg_flowchart-v2-pointEnd)"/><path d="M1208.555,576.991L1214.561,577.16C1220.568,577.328,1232.581,577.664,1243.099,577.832C1253.617,578,1262.641,578,1267.152,578L1271.664,578" id="L_ROOT_SA_0" class="edge-thickness-normal edge-pattern-solid edge-thickness-normal edge-pattern-solid flowchart-link" style=";" data-edge="true" data-et="edge" data-id="L_ROOT_SA_0" data-points="W3sieCI6MTIwOC41NTQ2ODc1LCJ5Ijo1NzYuOTkxNDE4NDIwMzMzNH0seyJ4IjoxMjQ0LjU5Mzc1LCJ5Ijo1Nzh9LHsieCI6MTI3NS42NjQwNjI1LCJ5Ijo1Nzh9XQ==" marker-end="url(#my-svg_flowchart-v2-pointEnd)"/><path d="M1195.118,625L1203.364,629.5C1211.61,634,1228.102,643,1255.097,647.5C1282.091,652,1319.589,652,1357.086,652C1394.583,652,1432.081,652,1454.996,652C1477.911,652,1486.245,652,1499.956,652C1513.667,652,1532.755,652,1551.844,652C1570.932,652,1590.021,652,1607.457,652C1624.893,652,1640.677,652,1648.569,652L1656.461,652" id="L_ROOT_LIVE_0" class="edge-thickness-normal edge-pattern-dotted edge-thickness-normal edge-pattern-solid flowchart-link" style=";" data-edge="true" data-et="edge" data-id="L_ROOT_LIVE_0" data-points="W3sieCI6MTE5NS4xMTgwODg5NDIzMDc2LCJ5Ijo2MjV9LHsieCI6MTI0NC41OTM3NSwieSI6NjUyfSx7IngiOjEzNTcuMDg1OTM3NSwieSI6NjUyfSx7IngiOjE0NjkuNTc4MTI1LCJ5Ijo2NTJ9LHsieCI6MTQ5NC41NzgxMjUsInkiOjY1Mn0seyJ4IjoxNTUxLjg0Mzc1LCJ5Ijo2NTJ9LHsieCI6MTYwOS4xMDkzNzUsInkiOjY1Mn0seyJ4IjoxNjYwLjQ2MDkzNzUsInkiOjY1Mn1d" marker-end="url(#my-svg_flowchart-v2-pointEnd)"/><path d="M1395.052,135L1407.473,126.167C1419.894,117.333,1444.736,99.667,1461.324,90.833C1477.911,82,1486.245,82,1499.956,82C1513.667,82,1532.755,82,1551.844,82C1570.932,82,1590.021,82,1603.191,82C1616.362,82,1623.615,82,1627.241,82L1630.867,82" id="L_VA_VISION_0" class="edge-thickness-normal edge-pattern-dotted edge-thickness-normal edge-pattern-solid flowchart-link" style=";" data-edge="true" data-et="edge" data-id="L_VA_VISION_0" data-points="W3sieCI6MTM5NS4wNTIwNTA3ODEyNSwieSI6MTM1fSx7IngiOjE0NjkuNTc4MTI1LCJ5Ijo4Mn0seyJ4IjoxNDk0LjU3ODEyNSwieSI6ODJ9LHsieCI6MTU1MS44NDM3NSwieSI6ODJ9LHsieCI6MTYwOS4xMDkzNzUsInkiOjgyfSx7IngiOjE2MzQuODY3MTg3NSwieSI6ODJ9XQ==" marker-end="url(#my-svg_flowchart-v2-pointEnd)"/><path d="M1420.363,189L1428.565,192.5C1436.768,196,1453.173,203,1465.542,206.5C1477.911,210,1486.245,210,1499.956,210C1513.667,210,1532.755,210,1551.844,210C1570.932,210,1590.021,210,1606.116,210C1622.211,210,1635.313,210,1641.863,210L1648.414,210" id="L_VA_IMGGEN_0" class="edge-thickness-normal edge-pattern-dotted edge-thickness-normal edge-pattern-solid flowchart-link" style=";" data-edge="true" data-et="edge" data-id="L_VA_IMGGEN_0" data-points="W3sieCI6MTQyMC4zNjI3OTI5Njg3NSwieSI6MTg5fSx7IngiOjE0NjkuNTc4MTI1LCJ5IjoyMTB9LHsieCI6MTQ5NC41NzgxMjUsInkiOjIxMH0seyJ4IjoxNTUxLjg0Mzc1LCJ5IjoyMTB9LHsieCI6MTYwOS4xMDkzNzUsInkiOjIxMH0seyJ4IjoxNjUyLjQxNDA2MjUsInkiOjIxMH1d" marker-end="url(#my-svg_flowchart-v2-pointEnd)"/><path d="M1369.483,189L1386.166,225.333C1402.848,261.667,1436.213,334.333,1457.062,370.667C1477.911,407,1486.245,407,1499.956,407C1513.667,407,1532.755,407,1551.844,407C1570.932,407,1590.021,407,1608.469,407C1626.917,407,1644.724,407,1653.628,407L1662.531,407" id="L_VA_CS_0" class="edge-thickness-normal edge-pattern-solid edge-thickness-normal edge-pattern-solid flowchart-link" style=";" data-edge="true" data-et="edge" data-id="L_VA_CS_0" data-points="W3sieCI6MTM2OS40ODMwMzU3MTQyODU3LCJ5IjoxODl9LHsieCI6MTQ2OS41NzgxMjUsInkiOjQwN30seyJ4IjoxNDk0LjU3ODEyNSwieSI6NDA3fSx7IngiOjE1NTEuODQzNzUsInkiOjQwN30seyJ4IjoxNjA5LjEwOTM3NSwieSI6NDA3fSx7IngiOjE2NjYuNTMxMjUsInkiOjQwN31d" marker-end="url(#my-svg_flowchart-v2-pointEnd)"/><path d="M1139.238,625L1156.798,648.833C1174.357,672.667,1209.475,720.333,1245.783,744.167C1282.091,768,1319.589,768,1357.086,768C1394.583,768,1432.081,768,1454.996,768C1477.911,768,1486.245,768,1499.956,768C1513.667,768,1532.755,768,1551.844,768C1570.932,768,1590.021,768,1611.393,768C1632.766,768,1656.422,768,1668.25,768L1680.078,768" id="L_ROOT_FS_0" class="edge-thickness-normal edge-pattern-solid edge-thickness-normal edge-pattern-solid flowchart-link" style=";" data-edge="true" data-et="edge" data-id="L_ROOT_FS_0" data-points="W3sieCI6MTEzOS4yMzgzNjE3OTEyMzcxLCJ5Ijo2MjV9LHsieCI6MTI0NC41OTM3NSwieSI6NzY4fSx7IngiOjEzNTcuMDg1OTM3NSwieSI6NzY4fSx7IngiOjE0NjkuNTc4MTI1LCJ5Ijo3Njh9LHsieCI6MTQ5NC41NzgxMjUsInkiOjc2OH0seyJ4IjoxNTUxLjg0Mzc1LCJ5Ijo3Njh9LHsieCI6MTYwOS4xMDkzNzUsInkiOjc2OH0seyJ4IjoxNjg0LjA3ODEyNSwieSI6NzY4fV0=" marker-end="url(#my-svg_flowchart-v2-pointEnd)"/><path d="M1126.125,625L1145.87,666.167C1165.615,707.333,1205.104,789.667,1243.598,830.833C1282.091,872,1319.589,872,1357.086,872C1394.583,872,1432.081,872,1454.996,872C1477.911,872,1486.245,872,1499.956,872C1513.667,872,1532.755,872,1551.844,872C1570.932,872,1590.021,872,1603.065,872C1616.109,872,1623.109,872,1626.609,872L1630.109,872" id="L_ROOT_MB_0" class="edge-thickness-normal edge-pattern-solid edge-thickness-normal edge-pattern-solid flowchart-link" style=";" data-edge="true" data-et="edge" data-id="L_ROOT_MB_0" data-points="W3sieCI6MTEyNi4xMjUxODM1MTUxMDA2LCJ5Ijo2MjV9LHsieCI6MTI0NC41OTM3NSwieSI6ODcyfSx7IngiOjEzNTcuMDg1OTM3NSwieSI6ODcyfSx7IngiOjE0NjkuNTc4MTI1LCJ5Ijo4NzJ9LHsieCI6MTQ5NC41NzgxMjUsInkiOjg3Mn0seyJ4IjoxNTUxLjg0Mzc1LCJ5Ijo4NzJ9LHsieCI6MTYwOS4xMDkzNzUsInkiOjg3Mn0seyJ4IjoxNjM0LjEwOTM3NSwieSI6ODcyfV0=" marker-end="url(#my-svg_flowchart-v2-pointEnd)"/><path d="M1440.07,1018L1444.988,1018C1449.906,1018,1459.742,1018,1468.827,1018C1477.911,1018,1486.245,1018,1499.956,1018C1513.667,1018,1532.755,1018,1551.844,1018C1570.932,1018,1590.021,1018,1604.203,1018C1618.385,1018,1627.661,1018,1632.299,1018L1636.938,1018" id="L_TR_TTS_0" class="edge-thickness-normal edge-pattern-solid edge-thickness-normal edge-pattern-solid flowchart-link" style=";" data-edge="true" data-et="edge" data-id="L_TR_TTS_0" data-points="W3sieCI6MTQ0MC4wNzAzMTI1LCJ5IjoxMDE4fSx7IngiOjE0NjkuNTc4MTI1LCJ5IjoxMDE4fSx7IngiOjE0OTQuNTc4MTI1LCJ5IjoxMDE4fSx7IngiOjE1NTEuODQzNzUsInkiOjEwMTh9LHsieCI6MTYwOS4xMDkzNzUsInkiOjEwMTh9LHsieCI6MTY0MC45Mzc1LCJ5IjoxMDE4fV0=" marker-end="url(#my-svg_flowchart-v2-pointEnd)"/><path d="M1851.484,1018L1856.789,1018C1862.094,1018,1872.703,1018,1882.174,1074.667C1891.646,1131.333,1899.979,1244.667,1907.685,1302.607C1915.391,1360.547,1922.47,1363.093,1926.009,1364.367L1929.549,1365.64" id="L_TTS_WA_0" class="edge-thickness-normal edge-pattern-solid edge-thickness-normal edge-pattern-solid flowchart-link" style=";" data-edge="true" data-et="edge" data-id="L_TTS_WA_0" data-points="W3sieCI6MTg1MS40ODQzNzUsInkiOjEwMTh9LHsieCI6MTg4My4zMTI1LCJ5IjoxMDE4fSx7IngiOjE5MDguMzEyNSwieSI6MTM1OH0seyJ4IjoxOTMzLjMxMjUsInkiOjEzNjYuOTk0MjI2Njc4ODIxfV0=" marker-end="url(#my-svg_flowchart-v2-pointEnd)"/><path d="M1817.109,1122L1828.143,1122C1839.177,1122,1861.245,1122,1876.445,1164.667C1891.646,1207.333,1899.979,1292.667,1907.655,1335.913C1915.33,1379.16,1922.348,1380.32,1925.857,1380.9L1929.366,1381.48" id="L_CT_WA_0" class="edge-thickness-normal edge-pattern-solid edge-thickness-normal edge-pattern-solid flowchart-link" style=";" data-edge="true" data-et="edge" data-id="L_CT_WA_0" data-points="W3sieCI6MTgxNy4xMDkzNzUsInkiOjExMjJ9LHsieCI6MTg4My4zMTI1LCJ5IjoxMTIyfSx7IngiOjE5MDguMzEyNSwieSI6MTM3OH0seyJ4IjoxOTMzLjMxMjUsInkiOjEzODIuMTMyNDgyNTI4MTA3fV0=" marker-end="url(#my-svg_flowchart-v2-pointEnd)"/></g><g class="edgeLabels"><g class="edgeLabel"><g class="label" data-id="L_PHONE_SIP_B_0" transform="translate(0, 0)"><foreignObject width="0" height="0"><div xmlns="http://www.w3.org/1999/xhtml" class="labelBkg" style="display: table-cell; white-space: nowrap; line-height: 1.5; max-width: 200px; text-align: center;"><span class="edgeLabel"></span></div></foreignObject></g></g><g class="edgeLabel" transform="translate(544.5546875, 1293)"><g class="label" data-id="L_SIP_B_GW_0" transform="translate(-40.234375, -12)"><foreignObject width="80.46875" height="24"><div xmlns="http://www.w3.org/1999/xhtml" class="labelBkg" style="display: table-cell; white-space: nowrap; line-height: 1.5; max-width: 200px; text-align: center;"><span class="edgeLabel"><p>WSS PCM16</p></span></div></foreignObject></g></g><g class="edgeLabel" transform="translate(1551.84375, 1416)"><g class="label" data-id="L_WA_CTRL_0" transform="translate(-32.265625, -12)"><foreignObject width="64.53125" height="24"><div xmlns="http://www.w3.org/1999/xhtml" class="labelBkg" style="display: table-cell; white-space: nowrap; line-height: 1.5; max-width: 200px; text-align: center;"><span class="edgeLabel"><p>Webhook</p></span></div></foreignObject></g></g><g class="edgeLabel" transform="translate(544.5546875, 1507)"><g class="label" data-id="L_PHONE_CTRL_0" transform="translate(-53.2578125, -12)"><foreignObject width="106.515625" height="24"><div xmlns="http://www.w3.org/1999/xhtml" class="labelBkg" style="display: table-cell; white-space: nowrap; line-height: 1.5; max-width: 200px; text-align: center;"><span class="edgeLabel"><p>Voice webhook</p></span></div></foreignObject></g></g><g class="edgeLabel" transform="translate(544.5546875, 1433)"><g class="label" data-id="L_UI_GW_0" transform="translate(-14.515625, -12)"><foreignObject width="29.03125" height="24"><div xmlns="http://www.w3.org/1999/xhtml" class="labelBkg" style="display: table-cell; white-space: nowrap; line-height: 1.5; max-width: 200px; text-align: center;"><span class="edgeLabel"><p>WSS</p></span></div></foreignObject></g></g><g class="edgeLabel"><g class="label" data-id="L_CTRL_TR_0" transform="translate(0, 0)"><foreignObject width="0" height="0"><div xmlns="http://www.w3.org/1999/xhtml" class="labelBkg" style="display: table-cell; white-space: nowrap; line-height: 1.5; max-width: 200px; text-align: center;"><span class="edgeLabel"></span></div></foreignObject></g></g><g class="edgeLabel" transform="translate(544.5546875, 1551)"><g class="label" data-id="L_CTRL_PHONE_0" transform="translate(-30.34375, -12)"><foreignObject width="60.6875" height="24"><div xmlns="http://www.w3.org/1999/xhtml" class="labelBkg" style="display: table-cell; white-space: nowrap; line-height: 1.5; max-width: 200px; text-align: center;"><span class="edgeLabel"><p>Dial XML</p></span></div></foreignObject></g></g><g class="edgeLabel"><g class="label" data-id="L_GW_ROOT_0" transform="translate(0, 0)"><foreignObject width="0" height="0"><div xmlns="http://www.w3.org/1999/xhtml" class="labelBkg" style="display: table-cell; white-space: nowrap; line-height: 1.5; max-width: 200px; text-align: center;"><span class="edgeLabel"></span></div></foreignObject></g></g><g class="edgeLabel"><g class="label" data-id="L_ROOT_VA_0" transform="translate(0, 0)"><foreignObject width="0" height="0"><div xmlns="http://www.w3.org/1999/xhtml" class="labelBkg" style="display: table-cell; white-space: nowrap; line-height: 1.5; max-width: 200px; text-align: center;"><span class="edgeLabel"></span></div></foreignObject></g></g><g class="edgeLabel"><g class="label" data-id="L_ROOT_VLA_0" transform="translate(0, 0)"><foreignObject width="0" height="0"><div xmlns="http://www.w3.org/1999/xhtml" class="labelBkg" style="display: table-cell; white-space: nowrap; line-height: 1.5; max-width: 200px; text-align: center;"><span class="edgeLabel"></span></div></foreignObject></g></g><g class="edgeLabel"><g class="label" data-id="L_ROOT_BA_0" transform="translate(0, 0)"><foreignObject width="0" height="0"><div xmlns="http://www.w3.org/1999/xhtml" class="labelBkg" style="display: table-cell; white-space: nowrap; line-height: 1.5; max-width: 200px; text-align: center;"><span class="edgeLabel"></span></div></foreignObject></g></g><g class="edgeLabel"><g class="label" data-id="L_ROOT_CA_0" transform="translate(0, 0)"><foreignObject width="0" height="0"><div xmlns="http://www.w3.org/1999/xhtml" class="labelBkg" style="display: table-cell; white-space: nowrap; line-height: 1.5; max-width: 200px; text-align: center;"><span class="edgeLabel"></span></div></foreignObject></g></g><g class="edgeLabel"><g class="label" data-id="L_ROOT_SA_0" transform="translate(0, 0)"><foreignObject width="0" height="0"><div xmlns="http://www.w3.org/1999/xhtml" class="labelBkg" style="display: table-cell; white-space: nowrap; line-height: 1.5; max-width: 200px; text-align: center;"><span class="edgeLabel"></span></div></foreignObject></g></g><g class="edgeLabel" transform="translate(1357.0859375, 652)"><g class="label" data-id="L_ROOT_LIVE_0" transform="translate(-35.640625, -12)"><foreignObject width="71.28125" height="24"><div xmlns="http://www.w3.org/1999/xhtml" class="labelBkg" style="display: table-cell; white-space: nowrap; line-height: 1.5; max-width: 200px; text-align: center;"><span class="edgeLabel"><p>Bidi Audio</p></span></div></foreignObject></g></g><g class="edgeLabel"><g class="label" data-id="L_VA_VISION_0" transform="translate(0, 0)"><foreignObject width="0" height="0"><div xmlns="http://www.w3.org/1999/xhtml" class="labelBkg" style="display: table-cell; white-space: nowrap; line-height: 1.5; max-width: 200px; text-align: center;"><span class="edgeLabel"></span></div></foreignObject></g></g><g class="edgeLabel"><g class="label" data-id="L_VA_IMGGEN_0" transform="translate(0, 0)"><foreignObject width="0" height="0"><div xmlns="http://www.w3.org/1999/xhtml" class="labelBkg" style="display: table-cell; white-space: nowrap; line-height: 1.5; max-width: 200px; text-align: center;"><span class="edgeLabel"></span></div></foreignObject></g></g><g class="edgeLabel"><g class="label" data-id="L_VA_CS_0" transform="translate(0, 0)"><foreignObject width="0" height="0"><div xmlns="http://www.w3.org/1999/xhtml" class="labelBkg" style="display: table-cell; white-space: nowrap; line-height: 1.5; max-width: 200px; text-align: center;"><span class="edgeLabel"></span></div></foreignObject></g></g><g class="edgeLabel"><g class="label" data-id="L_ROOT_FS_0" transform="translate(0, 0)"><foreignObject width="0" height="0"><div xmlns="http://www.w3.org/1999/xhtml" class="labelBkg" style="display: table-cell; white-space: nowrap; line-height: 1.5; max-width: 200px; text-align: center;"><span class="edgeLabel"></span></div></foreignObject></g></g><g class="edgeLabel"><g class="label" data-id="L_ROOT_MB_0" transform="translate(0, 0)"><foreignObject width="0" height="0"><div xmlns="http://www.w3.org/1999/xhtml" class="labelBkg" style="display: table-cell; white-space: nowrap; line-height: 1.5; max-width: 200px; text-align: center;"><span class="edgeLabel"></span></div></foreignObject></g></g><g class="edgeLabel"><g class="label" data-id="L_TR_TTS_0" transform="translate(0, 0)"><foreignObject width="0" height="0"><div xmlns="http://www.w3.org/1999/xhtml" class="labelBkg" style="display: table-cell; white-space: nowrap; line-height: 1.5; max-width: 200px; text-align: center;"><span class="edgeLabel"></span></div></foreignObject></g></g><g class="edgeLabel"><g class="label" data-id="L_TTS_WA_0" transform="translate(0, 0)"><foreignObject width="0" height="0"><div xmlns="http://www.w3.org/1999/xhtml" class="labelBkg" style="display: table-cell; white-space: nowrap; line-height: 1.5; max-width: 200px; text-align: center;"><span class="edgeLabel"></span></div></foreignObject></g></g><g class="edgeLabel"><g class="label" data-id="L_CT_WA_0" transform="translate(0, 0)"><foreignObject width="0" height="0"><div xmlns="http://www.w3.org/1999/xhtml" class="labelBkg" style="display: table-cell; white-space: nowrap; line-height: 1.5; max-width: 200px; text-align: center;"><span class="edgeLabel"></span></div></foreignObject></g></g></g><g class="nodes"><g class="node default" id="flowchart-PHONE-0" transform="translate(115.9296875, 1508)"><rect class="basic label-container" style="" x="-82.9296875" y="-39" width="165.859375" height="78"/><g class="label" style="" transform="translate(-52.9296875, -24)"><rect/><foreignObject width="105.859375" height="48"><div xmlns="http://www.w3.org/1999/xhtml" style="display: table-cell; white-space: nowrap; line-height: 1.5; max-width: 200px; text-align: center;"><span class="nodeLabel"><p>📞 PSTN<br />Africa's Talking</p></span></div></foreignObject></g></g><g class="node default" id="flowchart-SIP_B-1" transform="translate(357.578125, 1293)"><rect class="basic label-container" style="" x="-108.71875" y="-51" width="217.4375" height="102"/><g class="label" style="" transform="translate(-78.71875, -36)"><rect/><foreignObject width="157.4375" height="72"><div xmlns="http://www.w3.org/1999/xhtml" style="display: table-cell; white-space: nowrap; line-height: 1.5; max-width: 200px; text-align: center;"><span class="nodeLabel"><p>SIP Bridge VM<br />G.711/Opus ↔ PCM16<br />denoise, prewarm</p></span></div></foreignObject></g></g><g class="node default" id="flowchart-WA-2" transform="translate(2011.15625, 1395)"><rect class="basic label-container" style="" x="-77.84375" y="-39" width="155.6875" height="78"/><g class="label" style="" transform="translate(-47.84375, -24)"><rect/><foreignObject width="95.6875" height="48"><div xmlns="http://www.w3.org/1999/xhtml" style="display: table-cell; white-space: nowrap; line-height: 1.5; max-width: 200px; text-align: center;"><span class="nodeLabel"><p>💬 WhatsApp<br />Business API</p></span></div></foreignObject></g></g><g class="node default" id="flowchart-UI-3" transform="translate(357.578125, 1433)"><rect class="basic label-container" style="" x="-90.828125" y="-39" width="181.65625" height="78"/><g class="label" style="" transform="translate(-60.828125, -24)"><rect/><foreignObject width="121.65625" height="48"><div xmlns="http://www.w3.org/1999/xhtml" style="display: table-cell; white-space: nowrap; line-height: 1.5; max-width: 200px; text-align: center;"><span class="nodeLabel"><p>🌐 Web UI<br />React 19 + Vite 7</p></span></div></foreignObject></g></g><g class="node default" id="flowchart-CTRL-6" transform="translate(1101.6640625, 1068)"><rect class="basic label-container" style="" x="-117.9296875" y="-63" width="235.859375" height="126"/><g class="label" style="" transform="translate(-87.9296875, -48)"><rect/><foreignObject width="175.859375" height="96"><div xmlns="http://www.w3.org/1999/xhtml" style="display: table-cell; white-space: nowrap; line-height: 1.5; max-width: 200px; text-align: center;"><span class="nodeLabel"><p>Channel Routes<br />AT voice callback<br />WhatsApp webhook<br />SMS, payments, shipping</p></span></div></foreignObject></g></g><g class="node default" id="flowchart-TR-7" transform="translate(1357.0859375, 1018)"><rect class="basic label-container" style="" x="-82.984375" y="-39" width="165.96875" height="78"/><g class="label" style="" transform="translate(-52.984375, -24)"><rect/><foreignObject width="105.96875" height="48"><div xmlns="http://www.w3.org/1999/xhtml" style="display: table-cell; white-space: nowrap; line-height: 1.5; max-width: 200px; text-align: center;"><span class="nodeLabel"><p>Text Runtime<br />Gemini 2.5 Pro</p></span></div></foreignObject></g></g><g class="node default" id="flowchart-GW-8" transform="translate(765.7734375, 574)"><rect class="basic label-container" style="" x="-117.9609375" y="-39" width="235.921875" height="78"/><g class="label" style="" transform="translate(-87.9609375, -24)"><rect/><foreignObject width="175.921875" height="48"><div xmlns="http://www.w3.org/1999/xhtml" style="display: table-cell; white-space: nowrap; line-height: 1.5; max-width: 200px; text-align: center;"><span class="nodeLabel"><p>WebSocket Gateway<br />session auth + streaming</p></span></div></foreignObject></g></g><g class="node default" id="flowchart-ROOT-9" transform="translate(1101.6640625, 574)"><rect class="basic label-container" style="" x="-106.890625" y="-51" width="213.78125" height="102"/><g class="label" style="" transform="translate(-76.890625, -36)"><rect/><foreignObject width="153.78125" height="72"><div xmlns="http://www.w3.org/1999/xhtml" style="display: table-cell; white-space: nowrap; line-height: 1.5; max-width: 200px; text-align: center;"><span class="nodeLabel"><p>ekaette_router<br />Gemini Live 2.5 Flash<br />Native Audio</p></span></div></foreignObject></g></g><g class="node default" id="flowchart-VA-10" transform="translate(1357.0859375, 162)"><rect class="basic label-container" style="" x="-74.703125" y="-27" width="149.40625" height="54"/><g class="label" style="" transform="translate(-44.703125, -12)"><rect/><foreignObject width="89.40625" height="24"><div xmlns="http://www.w3.org/1999/xhtml" style="display: table-cell; white-space: nowrap; line-height: 1.5; max-width: 200px; text-align: center;"><span class="nodeLabel"><p>vision_agent</p></span></div></foreignObject></g></g><g class="node default" id="flowchart-VLA-11" transform="translate(1357.0859375, 266)"><rect class="basic label-container" style="" x="-87.4921875" y="-27" width="174.984375" height="54"/><g class="label" style="" transform="translate(-57.4921875, -12)"><rect/><foreignObject width="114.984375" height="24"><div xmlns="http://www.w3.org/1999/xhtml" style="display: table-cell; white-space: nowrap; line-height: 1.5; max-width: 200px; text-align: center;"><span class="nodeLabel"><p>valuation_agent</p></span></div></foreignObject></g></g><g class="node default" id="flowchart-BA-12" transform="translate(1357.0859375, 370)"><rect class="basic label-container" style="" x="-82.0703125" y="-27" width="164.140625" height="54"/><g class="label" style="" transform="translate(-52.0703125, -12)"><rect/><foreignObject width="104.140625" height="24"><div xmlns="http://www.w3.org/1999/xhtml" style="display: table-cell; white-space: nowrap; line-height: 1.5; max-width: 200px; text-align: center;"><span class="nodeLabel"><p>booking_agent</p></span></div></foreignObject></g></g><g class="node default" id="flowchart-CA-13" transform="translate(1357.0859375, 474)"><rect class="basic label-container" style="" x="-80.53125" y="-27" width="161.0625" height="54"/><g class="label" style="" transform="translate(-50.53125, -12)"><rect/><foreignObject width="101.0625" height="24"><div xmlns="http://www.w3.org/1999/xhtml" style="display: table-cell; white-space: nowrap; line-height: 1.5; max-width: 200px; text-align: center;"><span class="nodeLabel"><p>catalog_agent</p></span></div></foreignObject></g></g><g class="node default" id="flowchart-SA-14" transform="translate(1357.0859375, 578)"><rect class="basic label-container" style="" x="-81.421875" y="-27" width="162.84375" height="54"/><g class="label" style="" transform="translate(-51.421875, -12)"><rect/><foreignObject width="102.84375" height="24"><div xmlns="http://www.w3.org/1999/xhtml" style="display: table-cell; white-space: nowrap; line-height: 1.5; max-width: 200px; text-align: center;"><span class="nodeLabel"><p>support_agent</p></span></div></foreignObject></g></g><g class="node default" id="flowchart-LIVE-15" transform="translate(1746.2109375, 652)"><rect class="basic label-container" style="" x="-85.75" y="-39" width="171.5" height="78"/><g class="label" style="" transform="translate(-55.75, -24)"><rect/><foreignObject width="111.5" height="48"><div xmlns="http://www.w3.org/1999/xhtml" style="display: table-cell; white-space: nowrap; line-height: 1.5; max-width: 200px; text-align: center;"><span class="nodeLabel"><p>Gemini Live API<br />Vertex AI</p></span></div></foreignObject></g></g><g class="node default" id="flowchart-VISION-16" transform="translate(1746.2109375, 82)"><rect class="basic label-container" style="" x="-111.34375" y="-39" width="222.6875" height="78"/><g class="label" style="" transform="translate(-81.34375, -24)"><rect/><foreignObject width="162.6875" height="48"><div xmlns="http://www.w3.org/1999/xhtml" style="display: table-cell; white-space: nowrap; line-height: 1.5; max-width: 200px; text-align: center;"><span class="nodeLabel"><p>Gemini 2.5 Flash/Pro<br />Vision + Media Analysis</p></span></div></foreignObject></g></g><g class="node default" id="flowchart-IMGGEN-17" transform="translate(1746.2109375, 210)"><rect class="basic label-container" style="" x="-93.796875" y="-39" width="187.59375" height="78"/><g class="label" style="" transform="translate(-63.796875, -24)"><rect/><foreignObject width="127.59375" height="48"><div xmlns="http://www.w3.org/1999/xhtml" style="display: table-cell; white-space: nowrap; line-height: 1.5; max-width: 200px; text-align: center;"><span class="nodeLabel"><p>Gemini 3.1 Flash<br />Image Generation</p></span></div></foreignObject></g></g><g class="node default" id="flowchart-TTS-18" transform="translate(1746.2109375, 1018)"><rect class="basic label-container" style="" x="-105.2734375" y="-27" width="210.546875" height="54"/><g class="label" style="" transform="translate(-75.2734375, -12)"><rect/><foreignObject width="150.546875" height="24"><div xmlns="http://www.w3.org/1999/xhtml" style="display: table-cell; white-space: nowrap; line-height: 1.5; max-width: 200px; text-align: center;"><span class="nodeLabel"><p>Gemini 2.5 Flash TTS</p></span></div></foreignObject></g></g><g class="node default" id="flowchart-FS-19" transform="translate(1746.2109375, 768)"><rect class="basic label-container" style="" x="-62.1328125" y="-27" width="124.265625" height="54"/><g class="label" style="" transform="translate(-32.1328125, -12)"><rect/><foreignObject width="64.265625" height="24"><div xmlns="http://www.w3.org/1999/xhtml" style="display: table-cell; white-space: nowrap; line-height: 1.5; max-width: 200px; text-align: center;"><span class="nodeLabel"><p>Firestore</p></span></div></foreignObject></g></g><g class="node default" id="flowchart-CS-20" transform="translate(1746.2109375, 407)"><rect class="basic label-container" style="" x="-79.6796875" y="-27" width="159.359375" height="54"/><g class="label" style="" transform="translate(-49.6796875, -12)"><rect/><foreignObject width="99.359375" height="24"><div xmlns="http://www.w3.org/1999/xhtml" style="display: table-cell; white-space: nowrap; line-height: 1.5; max-width: 200px; text-align: center;"><span class="nodeLabel"><p>Cloud Storage</p></span></div></foreignObject></g></g><g class="node default" id="flowchart-MB-21" transform="translate(1746.2109375, 872)"><rect class="basic label-container" style="" x="-112.1015625" y="-27" width="224.203125" height="54"/><g class="label" style="" transform="translate(-82.1015625, -12)"><rect/><foreignObject width="164.203125" height="24"><div xmlns="http://www.w3.org/1999/xhtml" style="display: table-cell; white-space: nowrap; line-height: 1.5; max-width: 200px; text-align: center;"><span class="nodeLabel"><p>Vertex AI Memory Bank</p></span></div></foreignObject></g></g><g class="node default" id="flowchart-CT-22" transform="translate(1746.2109375, 1122)"><rect class="basic label-container" style="" x="-70.8984375" y="-27" width="141.796875" height="54"/><g class="label" style="" transform="translate(-40.8984375, -12)"><rect/><foreignObject width="81.796875" height="24"><div xmlns="http://www.w3.org/1999/xhtml" style="display: table-cell; white-space: nowrap; line-height: 1.5; max-width: 200px; text-align: center;"><span class="nodeLabel"><p>Cloud Tasks</p></span></div></foreignObject></g></g></g></g></g></svg>